<svg width="24" height="24" viewBox="0 0 24 24" fill="none" xmlns="http://www.w3.org/2000/svg">
<path d="M11.9984 0C12.3167 0 12.6219 0.126428 12.8469 0.351472C13.072 0.576516 13.1984 0.88174 13.1984 1.2V3.6384L13.1972 3.6636L13.1948 3.6996C14.8732 3.9829 16.3969 4.85145 17.4959 6.1512C18.5949 7.45095 19.198 9.09791 19.1984 10.8C19.1984 14.5116 19.9484 15.9744 21.1172 18.252L21.158 18.3336C21.362 18.7296 21.074 19.2 20.6276 19.2H3.36921C3.26723 19.2001 3.16694 19.174 3.07795 19.1242C2.98895 19.0744 2.91425 19.0025 2.86101 18.9156C2.80776 18.8286 2.77776 18.7294 2.77387 18.6275C2.76998 18.5256 2.79235 18.4244 2.83881 18.3336L2.87961 18.252C4.04841 15.9744 4.79841 14.5116 4.79841 10.8C4.79849 9.0977 5.40152 7.45046 6.50052 6.15046C7.59952 4.85046 9.12346 3.98174 10.802 3.6984L10.7996 3.6504C10.7988 3.63361 10.7984 3.61681 10.7984 3.6V1.2C10.7984 0.88174 10.9248 0.576516 11.1499 0.351472C11.3749 0.126428 11.6802 0 11.9984 0V0ZM14.3984 21.6C14.3984 22.2365 14.1456 22.847 13.6955 23.2971C13.2454 23.7471 12.6349 24 11.9984 24C11.3619 24 10.7514 23.7471 10.3014 23.2971C9.85127 22.847 9.59841 22.2365 9.59841 21.6H14.3984Z" fill="#B0AAD0"/>
</svg>
