<svg width="24" height="24" viewBox="0 0 24 24" fill="none" xmlns="http://www.w3.org/2000/svg">
<path d="M5.99962 14.4L1.65082 10.8C0.830016 10.1436 1.19002 8.8236 2.23162 8.6748L8.39962 8.4L11.0336 1.7964C11.1233 1.617 11.2612 1.46612 11.4318 1.36066C11.6024 1.25521 11.799 1.19936 11.9996 1.19936C12.2002 1.19936 12.3968 1.25521 12.5674 1.36066C12.738 1.46612 12.8759 1.617 12.9656 1.7964L15.5996 8.4L21.7676 8.6748C22.8092 8.8236 23.1692 10.1436 22.3484 10.8L17.9996 14.4L19.1864 21.4284C19.2174 21.6452 19.1885 21.8663 19.1028 22.0678C19.0171 22.2693 18.8779 22.4435 18.7003 22.5716C18.5226 22.6997 18.3134 22.7767 18.0951 22.7943C17.8768 22.8119 17.6579 22.7695 17.462 22.6716L11.9996 19.2L6.53722 22.6704C6.34134 22.7683 6.12241 22.8107 5.90415 22.7931C5.68588 22.7755 5.4766 22.6985 5.29897 22.5704C5.12134 22.4423 4.98214 22.2681 4.89645 22.0666C4.81075 21.8651 4.78183 21.644 4.81282 21.4272L5.99962 14.4Z" fill="#B0AAD0"/>
</svg>
